<svg width="20" height="20" viewBox="0 0 20 20" fill="none" xmlns="http://www.w3.org/2000/svg">
<path d="M9.125 17.775C7.5865 17.7756 6.08237 17.32 4.80286 16.4657C3.52334 15.6114 2.52591 14.3968 1.93673 12.9756C1.34754 11.5544 1.19306 9.99037 1.49283 8.48136C1.79259 6.97234 2.53314 5.58612 3.62081 4.49802C4.70847 3.40992 6.0944 2.66881 7.60329 2.36844C9.11219 2.06806 10.6763 2.22191 12.0977 2.81053C13.5192 3.39915 14.7341 4.39609 15.5889 5.67526C16.4437 6.95443 16.9 8.45838 16.9 9.99688C16.8975 12.0585 16.0777 14.0349 14.6202 15.493C13.1627 16.9511 11.1866 17.7717 9.125 17.775ZM9.125 3.46875C7.83373 3.46813 6.57128 3.85048 5.49732 4.56742C4.42337 5.28436 3.58615 6.3037 3.09157 7.49651C2.597 8.68931 2.46727 10.002 2.71881 11.2685C2.97035 12.5351 3.59184 13.6986 4.50469 14.6119C5.41754 15.5251 6.58074 16.1472 7.84715 16.3993C9.11357 16.6515 10.4263 16.5224 11.6194 16.0284C12.8124 15.5344 13.8321 14.6976 14.5496 13.624C15.2671 12.5504 15.65 11.2882 15.65 9.99688C15.6484 8.26656 14.9605 6.60754 13.7372 5.38373C12.514 4.15991 10.8553 3.47123 9.125 3.46875Z" fill="#0E8216"/>
<path d="M8.90101 12.9681C8.80738 12.9681 8.71497 12.947 8.63059 12.9064C8.54621 12.8658 8.47202 12.8068 8.41351 12.7337L5.28851 8.82124C5.20873 8.69202 5.17872 8.53817 5.20411 8.38844C5.22949 8.23871 5.30852 8.10334 5.42643 8.00764C5.54434 7.91193 5.69307 7.86243 5.84482 7.86838C5.99657 7.87433 6.14096 7.93534 6.25101 8.03999L8.82913 11.2494C9.93851 9.52124 12.9635 5.40874 17.7666 3.17124C17.9151 3.1107 18.0813 3.10957 18.2306 3.16808C18.3799 3.2266 18.501 3.34028 18.5689 3.48561C18.6367 3.63094 18.6461 3.79679 18.5951 3.94884C18.5441 4.10089 18.4365 4.22751 18.2948 4.30249C12.6198 6.95249 9.47913 12.5869 9.44788 12.6431C9.39727 12.7315 9.32583 12.8062 9.23978 12.8606C9.15372 12.9151 9.05566 12.9477 8.95413 12.9556L8.90101 12.9681Z" fill="#0E8216"/>
</svg>
