<svg width="18" height="17" viewBox="0 0 18 17" fill="none" xmlns="http://www.w3.org/2000/svg">
<g clip-path="url(#clip0_160_2235)">
<path d="M0.785156 5.45312H4.47896V16.8092H0.785156V5.45312ZM14.5404 5.5863C14.5012 5.57391 14.464 5.56049 14.4227 5.54913C14.3731 5.53791 14.3232 5.52827 14.273 5.52023C14.0549 5.47563 13.8329 5.45315 13.6102 5.45312C11.4567 5.45312 10.0909 7.01922 9.64079 7.62419V5.45312H5.94699V16.8092H9.64079V10.615C9.64079 10.615 12.4323 6.72706 13.6102 9.58259V16.8092H17.303V9.1459C17.3015 8.33047 17.0294 7.5386 16.5295 6.89442C16.0295 6.25024 15.3299 5.79016 14.5404 5.5863Z" fill="white"/>
<path d="M2.5918 3.90234C3.58958 3.90234 4.39844 3.09348 4.39844 2.0957C4.39844 1.09792 3.58958 0.289062 2.5918 0.289062C1.59402 0.289062 0.785156 1.09792 0.785156 2.0957C0.785156 3.09348 1.59402 3.90234 2.5918 3.90234Z" fill="white"/>
</g>
<defs>
<clipPath id="clip0_160_2235">
<rect width="16.5179" height="16.5179" fill="white" transform="translate(0.785156 0.289062)"/>
</clipPath>
</defs>
</svg>
