<svg width="20" height="21" viewBox="0 0 20 21" fill="none" xmlns="http://www.w3.org/2000/svg">
<path d="M10.0013 8.43073C9.59255 8.43073 9.19299 8.55194 8.85312 8.77902C8.51326 9.00611 8.24837 9.32888 8.09195 9.70652C7.93553 10.0842 7.8946 10.4997 7.97435 10.9006C8.05409 11.3015 8.25092 11.6697 8.53995 11.9587C8.82898 12.2478 9.19722 12.4446 9.59812 12.5244C9.99901 12.6041 10.4145 12.5632 10.7922 12.4067C11.1698 12.2503 11.4926 11.9854 11.7197 11.6456C11.9468 11.3057 12.068 10.9061 12.068 10.4974C12.068 10.226 12.0145 9.95726 11.9107 9.70652C11.8068 9.45578 11.6546 9.22795 11.4627 9.03604C11.2707 8.84413 11.0429 8.6919 10.7922 8.58804C10.5414 8.48418 10.2727 8.43073 10.0013 8.43073ZM18.2763 6.38906C18.2719 5.74553 18.1534 5.10787 17.9263 4.50573C17.759 4.06511 17.5002 3.66497 17.167 3.33172C16.8337 2.99846 16.4336 2.73966 15.993 2.5724C15.3908 2.34528 14.7532 2.22678 14.1096 2.2224C13.0346 2.16406 12.718 2.16406 10.0013 2.16406C7.28464 2.16406 6.96797 2.16406 5.89297 2.2224C5.24943 2.22678 4.61178 2.34528 4.00964 2.5724C3.56902 2.73966 3.16888 2.99846 2.83562 3.33172C2.50237 3.66497 2.24357 4.06511 2.0763 4.50573C1.84919 5.10787 1.73069 5.74553 1.7263 6.38906C1.66797 7.46406 1.66797 7.78073 1.66797 10.4974C1.66797 13.2141 1.66797 13.5307 1.7263 14.6057C1.73527 15.2515 1.85361 15.8911 2.0763 16.4974C2.24283 16.936 2.50141 17.3338 2.83464 17.6641C3.16646 17.9993 3.56746 18.2581 4.00964 18.4224C4.61178 18.6495 5.24943 18.768 5.89297 18.7724C6.96797 18.8307 7.28464 18.8307 10.0013 18.8307C12.718 18.8307 13.0346 18.8307 14.1096 18.7724C14.7532 18.768 15.3908 18.6495 15.993 18.4224C16.4351 18.2581 16.8361 17.9993 17.168 17.6641C17.5012 17.3338 17.7598 16.936 17.9263 16.4974C18.1532 15.8923 18.2717 15.252 18.2763 14.6057C18.3346 13.5307 18.3346 13.2141 18.3346 10.4974C18.3346 7.78073 18.3346 7.46406 18.2763 6.38906ZM16.1596 13.0557C16.1329 13.57 16.0231 14.0765 15.8346 14.5557C15.6729 14.9555 15.4324 15.3186 15.1274 15.6235C14.8225 15.9284 14.4594 16.169 14.0596 16.3307C13.5759 16.5087 13.0665 16.6072 12.5513 16.6224C11.893 16.6224 11.718 16.6224 10.0013 16.6224C8.28464 16.6224 8.10963 16.6224 7.4513 16.6224C6.93608 16.6072 6.42671 16.5087 5.94297 16.3307C5.52972 16.1772 5.15653 15.9322 4.8513 15.6141C4.54936 15.3151 4.31617 14.954 4.16797 14.5557C3.98927 14.0725 3.89347 13.5625 3.88464 13.0474C3.88464 12.3891 3.88464 12.2141 3.88464 10.4974C3.88464 8.78073 3.88464 8.60573 3.88464 7.9474C3.89347 7.43225 3.98927 6.9223 4.16797 6.43906C4.32154 6.02582 4.56653 5.65263 4.88464 5.3474C5.18491 5.04708 5.54569 4.81414 5.94297 4.66406C6.42671 4.48607 6.93608 4.38757 7.4513 4.3724C8.10963 4.3724 8.28464 4.3724 10.0013 4.3724C11.718 4.3724 11.893 4.3724 12.5513 4.3724C13.0665 4.38757 13.5759 4.48607 14.0596 4.66406C14.4729 4.81763 14.8461 5.06262 15.1513 5.38073C15.4532 5.67969 15.6864 6.04084 15.8346 6.43906C16.0126 6.9228 16.1111 7.43217 16.1263 7.9474C16.1263 8.60573 16.1263 8.78073 16.1263 10.4974C16.1263 12.2141 16.1846 12.3891 16.1596 13.0474V13.0557ZM14.8263 6.85573C14.7271 6.58655 14.5706 6.3421 14.3678 6.13924C14.1649 5.93638 13.9205 5.77995 13.6513 5.68073C13.2817 5.55261 12.8924 5.49055 12.5013 5.4974C11.8513 5.4974 11.668 5.4974 10.0013 5.4974C8.33464 5.4974 8.1513 5.4974 7.5013 5.4974C7.10819 5.50124 6.71886 5.57459 6.3513 5.71406C6.08624 5.80878 5.84438 5.95882 5.64179 6.15423C5.4392 6.34964 5.28052 6.58593 5.1763 6.8474C5.05528 7.21853 4.99616 7.60706 5.0013 7.9974C5.0013 8.6474 5.0013 8.83073 5.0013 10.4974C5.0013 12.1641 5.0013 12.3474 5.0013 12.9974C5.00956 13.3901 5.08278 13.7786 5.21797 14.1474C5.31719 14.4166 5.47362 14.661 5.67648 14.8639C5.87934 15.0667 6.12379 15.2232 6.39297 15.3224C6.74852 15.4532 7.12268 15.5263 7.5013 15.5391C8.1513 15.5391 8.33464 15.5391 10.0013 15.5391C11.668 15.5391 11.8513 15.5391 12.5013 15.5391C12.8944 15.5352 13.2837 15.4619 13.6513 15.3224C13.9205 15.2232 14.1649 15.0667 14.3678 14.8639C14.5706 14.661 14.7271 14.4166 14.8263 14.1474C14.9658 13.7798 15.0391 13.3905 15.043 12.9974C15.043 12.3474 15.043 12.1641 15.043 10.4974C15.043 8.83073 15.043 8.6474 15.043 7.9974C15.0432 7.60389 14.9697 7.21383 14.8263 6.8474V6.85573ZM10.0013 13.6807C9.58365 13.6807 9.17011 13.5983 8.78435 13.4383C8.3986 13.2782 8.04822 13.0436 7.75329 12.7478C7.45835 12.4521 7.22466 12.1011 7.06559 11.715C6.90652 11.3288 6.82521 10.915 6.8263 10.4974C6.8263 9.86744 7.01322 9.25164 7.36337 8.72797C7.71353 8.20429 8.21119 7.79628 8.79336 7.55559C9.37552 7.3149 10.016 7.25235 10.6337 7.37585C11.2515 7.49936 11.8187 7.80337 12.2635 8.2494C12.7084 8.69543 13.0109 9.26343 13.1328 9.88148C13.2547 10.4995 13.1905 11.1399 12.9483 11.7214C12.706 12.3029 12.2967 12.7995 11.7721 13.1483C11.2475 13.4971 10.6313 13.6824 10.0013 13.6807ZM13.3346 7.93906C13.1504 7.91956 12.9799 7.83258 12.856 7.69487C12.7321 7.55716 12.6636 7.37847 12.6636 7.19323C12.6636 7.00799 12.7321 6.8293 12.856 6.69159C12.9799 6.55388 13.1504 6.4669 13.3346 6.4474C13.5188 6.4669 13.6893 6.55388 13.8132 6.69159C13.9371 6.8293 14.0057 7.00799 14.0057 7.19323C14.0057 7.37847 13.9371 7.55716 13.8132 7.69487C13.6893 7.83258 13.5188 7.91956 13.3346 7.93906Z" fill="white"/>
</svg>
