<svg width="16" height="16" viewBox="0 0 16 16" fill="none" xmlns="http://www.w3.org/2000/svg">
<path d="M2.66667 8.66927C3.03486 8.66927 3.33333 8.37079 3.33333 8.0026C3.33333 7.63441 3.03486 7.33594 2.66667 7.33594C2.29848 7.33594 2 7.63441 2 8.0026C2 8.37079 2.29848 8.66927 2.66667 8.66927Z" fill="white"/>
<path d="M13.3707 7.33594H5.29073C4.94463 7.33594 4.66406 7.61651 4.66406 7.9626V8.0426C4.66406 8.3887 4.94463 8.66927 5.29073 8.66927H13.3707C13.7168 8.66927 13.9974 8.3887 13.9974 8.0426V7.9626C13.9974 7.61651 13.7168 7.33594 13.3707 7.33594Z" fill="white"/>
<path d="M13.3733 10.6641H2.62667C2.28057 10.6641 2 10.9446 2 11.2907V11.3707C2 11.7168 2.28057 11.9974 2.62667 11.9974H13.3733C13.7194 11.9974 14 11.7168 14 11.3707V11.2907C14 10.9446 13.7194 10.6641 13.3733 10.6641Z" fill="white"/>
<path d="M13.3733 4H2.62667C2.28057 4 2 4.28057 2 4.62667V4.70667C2 5.05277 2.28057 5.33333 2.62667 5.33333H13.3733C13.7194 5.33333 14 5.05277 14 4.70667V4.62667C14 4.28057 13.7194 4 13.3733 4Z" fill="white"/>
</svg>
